<svg width="24" height="24" viewBox="0 0 24 24" fill="none" xmlns="http://www.w3.org/2000/svg">
<g clip-path="url(#clip0_1_342)">
<path d="M0.606374 19.7586L11.377 1.84161C11.5994 1.4717 12.1707 1.46952 12.3964 1.83764L23.3806 19.7568C23.6265 20.158 23.2577 20.6439 22.7691 20.5627L11.9869 18.7698C11.9182 18.7583 11.8477 18.7584 11.779 18.7701L1.2223 20.5601C0.735272 20.6427 0.364794 20.1605 0.606374 19.7586Z" fill="url(#paint0_linear_1_342)"/>
<path d="M6.85083 22.9143L14.8214 21.4614C14.9524 21.4375 15.0494 21.3342 15.0573 21.2102L15.5476 13.5068C15.5591 13.3253 15.38 13.1845 15.1897 13.2254L12.9705 13.7018C12.7629 13.7463 12.5753 13.5762 12.618 13.382L13.2773 10.3786C13.3216 10.1765 13.1176 10.0036 12.9054 10.0636L11.5348 10.451C11.3223 10.511 11.1182 10.3376 11.1631 10.1353L12.2109 5.4177C12.2764 5.12261 11.8545 4.96169 11.6785 5.21469L11.561 5.38367L5.06611 17.4416C4.95735 17.6435 5.1449 17.8737 5.38326 17.8309L7.66748 17.4208C7.88213 17.3823 8.06477 17.5683 8.00418 17.7637L6.51331 22.5716C6.45267 22.7673 6.63595 22.9534 6.85083 22.9143Z" fill="url(#paint1_linear_1_342)"/>
</g>
<defs>
<linearGradient id="paint0_linear_1_342" x1="23.6488" y1="21.203" x2="11.4718" y2="3.42625" gradientUnits="userSpaceOnUse">
<stop stop-color="#41D1FF"/>
<stop offset="1" stop-color="#BD34FE"/>
</linearGradient>
<linearGradient id="paint1_linear_1_342" x1="12.6058" y1="22.5198" x2="10.5014" y2="7.0017" gradientUnits="userSpaceOnUse">
<stop stop-color="#FFEA83"/>
<stop offset="0.0833333" stop-color="#FFDD35"/>
<stop offset="1" stop-color="#FFA800"/>
</linearGradient>
<clipPath id="clip0_1_342">
<rect width="24" height="22" fill="white" transform="matrix(-1 0 0 -1 24 23)"/>
</clipPath>
</defs>
</svg>
